<svg xmlns="http://www.w3.org/2000/svg" width="1408" height="184" viewBox="0 0 1408 184" font-family="ui-monospace, SFMono-Regular, Menlo, monospace">
<rect width="1408" height="184" fill="#0d1117"/>
<defs><marker id="arrow" markerWidth="10" markerHeight="10" refX="7" refY="3" orient="auto"><path d="M0,0 L7,3 L0,6 Z" fill="#768390"/></marker></defs>
<text x="28" y="30" fill="#adbac7" font-size="13" font-weight="bold">litectx · contextgraph</text>
<text x="28" y="48" fill="#636e7b" font-size="10.5">a CE pipeline, generated from a real run — verbs as nodes, data as edges</text>
<line x1="240" y1="104" x2="403" y2="104" stroke="#768390" stroke-width="1.5" marker-end="url(#arrow)"/>
<rect x="271.25" y="80" width="105.5" height="17" rx="5" fill="#161b22" stroke="#30363d"/>
<text x="324" y="92" fill="#adbac7" font-size="10" text-anchor="middle">query the index</text>
<line x1="620" y1="104" x2="783" y2="104" stroke="#768390" stroke-width="1.5" marker-end="url(#arrow)"/>
<rect x="642.1" y="80" width="123.8" height="17" rx="5" fill="#161b22" stroke="#30363d"/>
<text x="704" y="92" fill="#adbac7" font-size="10" text-anchor="middle">8 units · 2564 tok</text>
<line x1="1000" y1="104" x2="1163" y2="104" stroke="#768390" stroke-width="1.5" marker-end="url(#arrow)"/>
<rect x="1003.8" y="80" width="160.39999999999998" height="17" rx="5" fill="#161b22" stroke="#30363d"/>
<text x="1084" y="92" fill="#adbac7" font-size="10" text-anchor="middle">kept 5 · comp 1 · drop 2</text>
<rect x="28" y="70" width="212" height="68" rx="11" fill="#21262d" stroke="#444c56"/>
<text x="134" y="98" fill="#f0f6fc" font-size="15" font-weight="bold" text-anchor="middle">index</text>
<text x="134" y="119" fill="#909dab" font-size="10.5" text-anchor="middle">154 files → graph</text>
<rect x="408" y="70" width="212" height="68" rx="11" fill="#21262d" stroke="#444c56"/>
<text x="514" y="98" fill="#f0f6fc" font-size="15" font-weight="bold" text-anchor="middle">recall</text>
<text x="514" y="119" fill="#909dab" font-size="10.5" text-anchor="middle">8 code hits</text>
<rect x="788" y="70" width="212" height="68" rx="11" fill="#21262d" stroke="#444c56"/>
<text x="894" y="98" fill="#f0f6fc" font-size="15" font-weight="bold" text-anchor="middle">assemble</text>
<text x="894" y="119" fill="#909dab" font-size="10.5" text-anchor="middle">budget 1154 tok</text>
<rect x="1168" y="70" width="212" height="68" rx="11" fill="#1c3a2e" stroke="#444c56"/>
<text x="1274" y="98" fill="#f0f6fc" font-size="15" font-weight="bold" text-anchor="middle">→ context window</text>
<text x="1274" y="119" fill="#909dab" font-size="10.5" text-anchor="middle">1115 tok assembled</text>
</svg>
