<svg xmlns="http://www.w3.org/2000/svg" width="992" height="348" viewBox="0 0 992 348" font-family="ui-monospace, SFMono-Regular, Menlo, monospace">
<rect width="992" height="348" fill="#f7f5ef"/>
<defs><marker id="arrow" markerWidth="10" markerHeight="10" refX="7" refY="3" orient="auto"><path d="M0,0 L7,3 L0,6 Z" fill="#a79e8b"/></marker></defs>
<text x="28" y="32" fill="#3a352b" font-size="15" font-weight="bold">litectx · contextgraph — assemble VALUE bench (A/B)</text>
<text x="28" y="51" fill="#8c8473" font-size="10.5">the COMPRESS-rescue gate as a pipeline: one transcript, two assemble policies</text>
<text x="903.7" y="79" fill="#7c7565" font-size="10.5">Substrate</text>
<rect x="884.7" y="69" width="13" height="13" rx="3" fill="#efece3" stroke="#d3ccbc"/>
<text x="821.8000000000001" y="79" fill="#7c7565" font-size="10.5">Isolate</text>
<rect x="802.8000000000001" y="69" width="13" height="13" rx="3" fill="#ece0f6" stroke="#d3ccbc"/>
<text x="733.2" y="79" fill="#7c7565" font-size="10.5">Compress</text>
<rect x="714.2" y="69" width="13" height="13" rx="3" fill="#d7f0e0" stroke="#d3ccbc"/>
<text x="658" y="79" fill="#7c7565" font-size="10.5">Select</text>
<rect x="639" y="69" width="13" height="13" rx="3" fill="#d9e9f4" stroke="#d3ccbc"/>
<text x="589.5" y="79" fill="#7c7565" font-size="10.5">Write</text>
<rect x="570.5" y="69" width="13" height="13" rx="3" fill="#f4e7d2" stroke="#d3ccbc"/>
<line x1="240" y1="135" x2="385" y2="135" stroke="#a79e8b" stroke-width="1.5" marker-end="url(#arrow)"/>
<rect x="286.65" y="114" width="56.699999999999996" height="17" rx="5" fill="#fffdf8" stroke="#e2dccc"/>
<text x="315" y="126" fill="#7c7565" font-size="10" text-anchor="middle">4 units</text>
<line x1="602" y1="135" x2="747" y2="135" stroke="#a79e8b" stroke-width="1.5" marker-end="url(#arrow)"/>
<rect x="596.8" y="114" width="160.39999999999998" height="17" rx="5" fill="#fffdf8" stroke="#e2dccc"/>
<text x="677" y="126" fill="#7c7565" font-size="10" text-anchor="middle">kept 3 · comp 1 · drop 0</text>
<line x1="134" y1="172" x2="134" y2="241" stroke="#a79e8b" stroke-width="1.5" marker-end="url(#arrow)"/>
<rect x="72.1" y="188" width="123.8" height="17" rx="5" fill="#fffdf8" stroke="#e2dccc"/>
<text x="134" y="200" fill="#7c7565" font-size="10" text-anchor="middle">4 units (baseline)</text>
<line x1="602" y1="283" x2="747" y2="283" stroke="#a79e8b" stroke-width="1.5" marker-end="url(#arrow)"/>
<rect x="624.25" y="262" width="105.5" height="17" rx="5" fill="#fffdf8" stroke="#e2dccc"/>
<text x="677" y="274" fill="#7c7565" font-size="10" text-anchor="middle">kept 3 · drop 1</text>
<rect x="28" y="98" width="212" height="74" rx="11" fill="#ffffff" stroke="#d3ccbc"/>
<text x="134" y="133" fill="#2a261f" font-size="16" font-weight="bold" text-anchor="middle">transcript</text>
<text x="134" y="153" fill="#7c7565" font-size="10.5" text-anchor="middle">4 units · needle validateToken</text>
<rect x="390" y="98" width="212" height="74" rx="11" fill="#ffffff" stroke="#d3ccbc"/>
<text x="496" y="133" fill="#2a261f" font-size="16" font-weight="bold" text-anchor="middle">assemble</text>
<text x="496" y="153" fill="#7c7565" font-size="10.5" text-anchor="middle">COMPRESS on · budget 110</text>
<rect x="752" y="98" width="212" height="74" rx="11" fill="#ffffff" stroke="#d3ccbc"/>
<text x="858" y="133" fill="#2a261f" font-size="16" font-weight="bold" text-anchor="middle">→ context</text>
<text x="858" y="153" fill="#7c7565" font-size="10.5" text-anchor="middle">needle kept as signature</text>
<rect x="390" y="246" width="212" height="74" rx="11" fill="#ffffff" stroke="#d3ccbc"/>
<text x="496" y="281" fill="#2a261f" font-size="16" font-weight="bold" text-anchor="middle">assemble</text>
<text x="496" y="301" fill="#7c7565" font-size="10.5" text-anchor="middle">FIT only · budget 110</text>
<rect x="752" y="246" width="212" height="74" rx="11" fill="#ffffff" stroke="#d3ccbc"/>
<text x="858" y="281" fill="#2a261f" font-size="16" font-weight="bold" text-anchor="middle">→ context</text>
<text x="858" y="301" fill="#7c7565" font-size="10.5" text-anchor="middle">needle LOST — dropped</text>
</svg>
