<svg xmlns="http://www.w3.org/2000/svg" width="1036" height="286" viewBox="0 0 1036 286" font-family="ui-monospace, SFMono-Regular, Menlo, monospace">
<rect width="1036" height="286" fill="#0d1117"/>
<defs><marker id="arrow" markerWidth="10" markerHeight="10" refX="7" refY="3" orient="auto"><path d="M0,0 L7,3 L0,6 Z" fill="#768390"/></marker></defs>
<text x="28" y="30" fill="#adbac7" font-size="13" font-weight="bold">litectx · contextgraph — assemble VALUE bench (A/B)</text>
<text x="28" y="48" fill="#636e7b" font-size="10.5">the COMPRESS-rescue gate as a pipeline: one transcript, two assemble policies</text>
<line x1="240" y1="106" x2="407" y2="106" stroke="#768390" stroke-width="1.5" marker-end="url(#arrow)"/>
<rect x="297.65" y="85" width="56.699999999999996" height="17" rx="5" fill="#161b22" stroke="#30363d"/>
<text x="326" y="97" fill="#adbac7" font-size="10" text-anchor="middle">4 units</text>
<line x1="624" y1="106" x2="791" y2="106" stroke="#768390" stroke-width="1.5" marker-end="url(#arrow)"/>
<rect x="629.8" y="85" width="160.39999999999998" height="17" rx="5" fill="#161b22" stroke="#30363d"/>
<text x="710" y="97" fill="#adbac7" font-size="10" text-anchor="middle">kept 3 · comp 1 · drop 0</text>
<line x1="240" y1="106" x2="407" y2="224" stroke="#768390" stroke-width="1.5" marker-end="url(#arrow)"/>
<rect x="264.1" y="144" width="123.8" height="17" rx="5" fill="#161b22" stroke="#30363d"/>
<text x="326" y="156" fill="#adbac7" font-size="10" text-anchor="middle">4 units (baseline)</text>
<line x1="624" y1="224" x2="791" y2="224" stroke="#768390" stroke-width="1.5" marker-end="url(#arrow)"/>
<rect x="657.25" y="203" width="105.5" height="17" rx="5" fill="#161b22" stroke="#30363d"/>
<text x="710" y="215" fill="#adbac7" font-size="10" text-anchor="middle">kept 3 · drop 1</text>
<rect x="28" y="72" width="212" height="68" rx="11" fill="#21262d" stroke="#444c56"/>
<text x="134" y="100" fill="#f0f6fc" font-size="15" font-weight="bold" text-anchor="middle">transcript</text>
<text x="134" y="121" fill="#909dab" font-size="10.5" text-anchor="middle">4 units · needle validateToken</text>
<rect x="412" y="72" width="212" height="68" rx="11" fill="#21262d" stroke="#444c56"/>
<text x="518" y="100" fill="#f0f6fc" font-size="15" font-weight="bold" text-anchor="middle">assemble</text>
<text x="518" y="121" fill="#909dab" font-size="10.5" text-anchor="middle">COMPRESS on · budget 110</text>
<rect x="796" y="72" width="212" height="68" rx="11" fill="#1c3a2e" stroke="#444c56"/>
<text x="902" y="100" fill="#f0f6fc" font-size="15" font-weight="bold" text-anchor="middle">→ context</text>
<text x="902" y="121" fill="#909dab" font-size="10.5" text-anchor="middle">needle kept as signature</text>
<rect x="412" y="190" width="212" height="68" rx="11" fill="#21262d" stroke="#444c56"/>
<text x="518" y="218" fill="#f0f6fc" font-size="15" font-weight="bold" text-anchor="middle">assemble</text>
<text x="518" y="239" fill="#909dab" font-size="10.5" text-anchor="middle">FIT only · budget 110</text>
<rect x="796" y="190" width="212" height="68" rx="11" fill="#3a1c1c" stroke="#444c56"/>
<text x="902" y="218" fill="#f0f6fc" font-size="15" font-weight="bold" text-anchor="middle">→ context</text>
<text x="902" y="239" fill="#909dab" font-size="10.5" text-anchor="middle">needle LOST — dropped</text>
</svg>
