<svg xmlns="http://www.w3.org/2000/svg" width="2188" height="168" viewBox="0 0 2188 168" font-family="ui-monospace, SFMono-Regular, Menlo, monospace">
<rect width="2188" height="168" fill="#0d1117"/>
<defs><marker id="arrow" markerWidth="10" markerHeight="10" refX="7" refY="3" orient="auto"><path d="M0,0 L7,3 L0,6 Z" fill="#768390"/></marker></defs>
<text x="28" y="30" fill="#adbac7" font-size="13" font-weight="bold">litectx · contextgraph — flow (how it ran, in order)</text>
<text x="28" y="48" fill="#636e7b" font-size="10.5">verbs in execution order, captured live by observe()</text>
<line x1="240" y1="106" x2="407" y2="106" stroke="#768390" stroke-width="1.5" marker-end="url(#arrow)"/>
<line x1="624" y1="106" x2="791" y2="106" stroke="#768390" stroke-width="1.5" marker-end="url(#arrow)"/>
<line x1="1008" y1="106" x2="1175" y2="106" stroke="#768390" stroke-width="1.5" marker-end="url(#arrow)"/>
<line x1="1392" y1="106" x2="1559" y2="106" stroke="#768390" stroke-width="1.5" marker-end="url(#arrow)"/>
<line x1="1776" y1="106" x2="1943" y2="106" stroke="#768390" stroke-width="1.5" marker-end="url(#arrow)"/>
<rect x="28" y="72" width="212" height="68" rx="11" fill="#21262d" stroke="#444c56"/>
<text x="134" y="100" fill="#f0f6fc" font-size="15" font-weight="bold" text-anchor="middle">index</text>
<text x="134" y="121" fill="#909dab" font-size="10.5" text-anchor="middle">159 files</text>
<rect x="412" y="72" width="212" height="68" rx="11" fill="#3a2c1c" stroke="#444c56"/>
<text x="518" y="100" fill="#f0f6fc" font-size="15" font-weight="bold" text-anchor="middle">remember</text>
<text x="518" y="121" fill="#909dab" font-size="10.5" text-anchor="middle">fact:auth</text>
<rect x="796" y="72" width="212" height="68" rx="11" fill="#1c2f3a" stroke="#444c56"/>
<text x="902" y="100" fill="#f0f6fc" font-size="15" font-weight="bold" text-anchor="middle">recall</text>
<text x="902" y="121" fill="#909dab" font-size="10.5" text-anchor="middle">6 hits</text>
<rect x="1180" y="72" width="212" height="68" rx="11" fill="#1c3a2e" stroke="#444c56"/>
<text x="1286" y="100" fill="#f0f6fc" font-size="15" font-weight="bold" text-anchor="middle">assemble</text>
<text x="1286" y="121" fill="#909dab" font-size="10.5" text-anchor="middle">6 kept · 307 tok</text>
<rect x="1564" y="72" width="212" height="68" rx="11" fill="#1c3a2e" stroke="#444c56"/>
<text x="1670" y="100" fill="#f0f6fc" font-size="15" font-weight="bold" text-anchor="middle">compress</text>
<text x="1670" y="121" fill="#909dab" font-size="10.5" text-anchor="middle">signature · 20 tok</text>
<rect x="1948" y="72" width="212" height="68" rx="11" fill="#2f1c3a" stroke="#444c56"/>
<text x="2054" y="100" fill="#f0f6fc" font-size="15" font-weight="bold" text-anchor="middle">stash</text>
<text x="2054" y="121" fill="#909dab" font-size="10.5" text-anchor="middle">scratch:run1 parked</text>
</svg>
