<svg xmlns="http://www.w3.org/2000/svg" width="1420" height="168" viewBox="0 0 1420 168" font-family="ui-monospace, SFMono-Regular, Menlo, monospace">
<rect width="1420" height="168" fill="#0d1117"/>
<defs><marker id="arrow" markerWidth="10" markerHeight="10" refX="7" refY="3" orient="auto"><path d="M0,0 L7,3 L0,6 Z" fill="#768390"/></marker></defs>
<text x="28" y="30" fill="#adbac7" font-size="13" font-weight="bold">litectx · contextgraph</text>
<text x="28" y="48" fill="#636e7b" font-size="10.5">a CE pipeline, generated from a real run — verbs as nodes, data as edges</text>
<line x1="240" y1="106" x2="407" y2="106" stroke="#768390" stroke-width="1.5" marker-end="url(#arrow)"/>
<rect x="273.25" y="85" width="105.5" height="17" rx="5" fill="#161b22" stroke="#30363d"/>
<text x="326" y="97" fill="#adbac7" font-size="10" text-anchor="middle">query the index</text>
<line x1="624" y1="106" x2="791" y2="106" stroke="#768390" stroke-width="1.5" marker-end="url(#arrow)"/>
<rect x="648.1" y="85" width="123.8" height="17" rx="5" fill="#161b22" stroke="#30363d"/>
<text x="710" y="97" fill="#adbac7" font-size="10" text-anchor="middle">8 units · 2479 tok</text>
<line x1="1008" y1="106" x2="1175" y2="106" stroke="#768390" stroke-width="1.5" marker-end="url(#arrow)"/>
<rect x="1013.8" y="85" width="160.39999999999998" height="17" rx="5" fill="#161b22" stroke="#30363d"/>
<text x="1094" y="97" fill="#adbac7" font-size="10" text-anchor="middle">kept 6 · comp 0 · drop 2</text>
<rect x="28" y="72" width="212" height="68" rx="11" fill="#21262d" stroke="#444c56"/>
<text x="134" y="100" fill="#f0f6fc" font-size="15" font-weight="bold" text-anchor="middle">index</text>
<text x="134" y="121" fill="#909dab" font-size="10.5" text-anchor="middle">159 files → graph</text>
<rect x="412" y="72" width="212" height="68" rx="11" fill="#21262d" stroke="#444c56"/>
<text x="518" y="100" fill="#f0f6fc" font-size="15" font-weight="bold" text-anchor="middle">recall</text>
<text x="518" y="121" fill="#909dab" font-size="10.5" text-anchor="middle">8 code hits</text>
<rect x="796" y="72" width="212" height="68" rx="11" fill="#21262d" stroke="#444c56"/>
<text x="902" y="100" fill="#f0f6fc" font-size="15" font-weight="bold" text-anchor="middle">assemble</text>
<text x="902" y="121" fill="#909dab" font-size="10.5" text-anchor="middle">budget 1116 tok</text>
<rect x="1180" y="72" width="212" height="68" rx="11" fill="#1c3a2e" stroke="#444c56"/>
<text x="1286" y="100" fill="#f0f6fc" font-size="15" font-weight="bold" text-anchor="middle">→ context window</text>
<text x="1286" y="121" fill="#909dab" font-size="10.5" text-anchor="middle">1098 tok assembled</text>
</svg>
