<svg xmlns="http://www.w3.org/2000/svg" width="728" height="740" viewBox="0 0 728 740" font-family="ui-monospace, SFMono-Regular, Menlo, monospace">
<rect width="728" height="740" fill="#f7f5ef"/>
<text x="28" y="32" fill="#3a352b" font-size="15" font-weight="bold">litectx · contextgraph — CE coverage</text>
<text x="28" y="51" fill="#8c8473" font-size="10.5">Write · Select · Compress · Isolate as the trunk; verbs this design USED are lit + numbered in run order</text>
<line x1="196" y1="361.5" x2="236" y2="130" stroke="#a79e8b" stroke-width="1.5"/>
<line x1="196" y1="361.5" x2="236" y2="269" stroke="#a79e8b" stroke-width="1.5"/>
<line x1="196" y1="361.5" x2="236" y2="408" stroke="#a79e8b" stroke-width="1.5"/>
<line x1="196" y1="361.5" x2="236" y2="593" stroke="#a79e8b" stroke-width="1.5"/>
<line x1="386" y1="130" x2="452" y2="84" stroke="#a79e8b" stroke-width="1.5"/>
<line x1="386" y1="130" x2="452" y2="130" stroke="#e7e2d6" stroke-width="1.5"/>
<line x1="386" y1="130" x2="452" y2="176" stroke="#e7e2d6" stroke-width="1.5"/>
<line x1="386" y1="269" x2="452" y2="246" stroke="#a79e8b" stroke-width="1.5"/>
<line x1="386" y1="269" x2="452" y2="292" stroke="#e7e2d6" stroke-width="1.5"/>
<line x1="386" y1="408" x2="452" y2="362" stroke="#a79e8b" stroke-width="1.5"/>
<line x1="386" y1="408" x2="452" y2="408" stroke="#a79e8b" stroke-width="1.5"/>
<line x1="386" y1="408" x2="452" y2="454" stroke="#e7e2d6" stroke-width="1.5"/>
<line x1="386" y1="593" x2="452" y2="524" stroke="#a79e8b" stroke-width="1.5"/>
<line x1="386" y1="593" x2="452" y2="570" stroke="#e7e2d6" stroke-width="1.5"/>
<line x1="386" y1="593" x2="452" y2="616" stroke="#e7e2d6" stroke-width="1.5"/>
<line x1="386" y1="593" x2="452" y2="662" stroke="#e7e2d6" stroke-width="1.5"/>
<rect x="28" y="339.5" width="168" height="44" rx="10" fill="#ffffff" stroke="#d3ccbc"/>
<text x="112" y="359.5" fill="#2a261f" font-size="13" font-weight="bold" text-anchor="middle">graph substrate</text>
<text x="112" y="374.5" fill="#7c7565" font-size="9.5" text-anchor="middle">index · get · related</text>
<rect x="236" y="110" width="150" height="40" rx="9" fill="#f4e7d2" stroke="#d3ccbc"/>
<text x="311" y="135" fill="#2a261f" font-size="14" font-weight="bold" text-anchor="middle">Write</text>
<rect x="236" y="249" width="150" height="40" rx="9" fill="#d9e9f4" stroke="#d3ccbc"/>
<text x="311" y="274" fill="#2a261f" font-size="14" font-weight="bold" text-anchor="middle">Select</text>
<rect x="236" y="388" width="150" height="40" rx="9" fill="#d7f0e0" stroke="#d3ccbc"/>
<text x="311" y="413" fill="#2a261f" font-size="14" font-weight="bold" text-anchor="middle">Compress</text>
<rect x="236" y="573" width="150" height="40" rx="9" fill="#ece0f6" stroke="#d3ccbc"/>
<text x="311" y="598" fill="#2a261f" font-size="14" font-weight="bold" text-anchor="middle">Isolate</text>
<rect x="452" y="67" width="248" height="34" rx="8" fill="#f4e7d2" stroke="#d3ccbc"/>
<circle cx="469" cy="84" r="9" fill="#2f6fb3"/><text x="469" y="87.5" fill="#ffffff" font-size="11" font-weight="bold" text-anchor="middle">2</text>
<text x="486" y="88" fill="#2a261f" font-size="12.5" font-weight="bold">remember</text>
<rect x="452" y="113" width="248" height="34" rx="8" fill="#fffdf8" stroke="#e2dccc"/>
<text x="486" y="134" fill="#7c7565" font-size="12.5" font-weight="normal">forget</text>
<rect x="452" y="159" width="248" height="34" rx="8" fill="#fffdf8" stroke="#e2dccc"/>
<text x="486" y="180" fill="#7c7565" font-size="12.5" font-weight="normal">write-gate</text>
<rect x="452" y="229" width="248" height="34" rx="8" fill="#d9e9f4" stroke="#d3ccbc"/>
<circle cx="469" cy="246" r="9" fill="#2f6fb3"/><text x="469" y="249.5" fill="#ffffff" font-size="11" font-weight="bold" text-anchor="middle">3</text>
<text x="486" y="250" fill="#2a261f" font-size="12.5" font-weight="bold">recall</text>
<rect x="452" y="275" width="248" height="34" rx="8" fill="#fffdf8" stroke="#e2dccc"/>
<text x="486" y="296" fill="#7c7565" font-size="12.5" font-weight="normal">impact</text>
<rect x="452" y="345" width="248" height="34" rx="8" fill="#d7f0e0" stroke="#d3ccbc"/>
<circle cx="469" cy="362" r="9" fill="#2f6fb3"/><text x="469" y="365.5" fill="#ffffff" font-size="11" font-weight="bold" text-anchor="middle">4</text>
<text x="486" y="366" fill="#2a261f" font-size="12.5" font-weight="bold">assemble</text>
<rect x="452" y="391" width="248" height="34" rx="8" fill="#d7f0e0" stroke="#d3ccbc"/>
<circle cx="469" cy="408" r="9" fill="#2f6fb3"/><text x="469" y="411.5" fill="#ffffff" font-size="11" font-weight="bold" text-anchor="middle">5</text>
<text x="486" y="412" fill="#2a261f" font-size="12.5" font-weight="bold">compress</text>
<rect x="452" y="437" width="248" height="34" rx="8" fill="#fffdf8" stroke="#e2dccc"/>
<text x="486" y="458" fill="#7c7565" font-size="12.5" font-weight="normal">summaryWindow</text>
<rect x="452" y="507" width="248" height="34" rx="8" fill="#ece0f6" stroke="#d3ccbc"/>
<circle cx="469" cy="524" r="9" fill="#2f6fb3"/><text x="469" y="527.5" fill="#ffffff" font-size="11" font-weight="bold" text-anchor="middle">6</text>
<text x="486" y="528" fill="#2a261f" font-size="12.5" font-weight="bold">stash</text>
<rect x="452" y="553" width="248" height="34" rx="8" fill="#fffdf8" stroke="#e2dccc"/>
<text x="486" y="574" fill="#7c7565" font-size="12.5" font-weight="normal">peek</text>
<rect x="452" y="599" width="248" height="34" rx="8" fill="#fffdf8" stroke="#e2dccc"/>
<text x="486" y="620" fill="#7c7565" font-size="12.5" font-weight="normal">evict</text>
<rect x="452" y="645" width="248" height="34" rx="8" fill="#fffdf8" stroke="#e2dccc"/>
<text x="486" y="666" fill="#7c7565" font-size="12.5" font-weight="normal">scope</text>
</svg>
